<svg id="그룹_23" data-name="그룹 23" xmlns="http://www.w3.org/2000/svg" width="89.972" height="21.594" viewBox="0 0 89.972 21.594">
  <g id="그룹_24" data-name="그룹 24">
    <path id="패스_95" data-name="패스 95" d="M582.008,124.412H599.1a10.8,10.8,0,0,1-10.794-10.8h0v0A10.794,10.794,0,0,1,599.1,102.818H582.008v10.8l-5.4-5.4-5.4,5.4v-10.8H554.117a10.8,10.8,0,0,1,10.8,10.793v.011a10.8,10.8,0,0,1-10.8,10.791h17.094l5.4-5.4Z" transform="translate(-554.117 -102.818)" fill="#fff"/>
    <path id="패스_96" data-name="패스 96" d="M679.166,102.818h-17.1a10.8,10.8,0,0,1,10.8,10.791v.013a10.8,10.8,0,0,1-10.8,10.791h17.1v-10.8l10.8,10.8h17.095a10.8,10.8,0,0,1-10.8-10.8h0a10.8,10.8,0,0,1,10.8-10.8H689.964v10.8Z" transform="translate(-617.086 -102.818)" fill="#fff"/>
    <path id="패스_97" data-name="패스 97" d="M660.273,122.432a4.5,4.5,0,1,1-4.5-4.5A4.5,4.5,0,0,1,660.273,122.432Z" transform="translate(-610.789 -111.636)" fill="#fff"/>
  </g>
</svg>
